<svg width="200" height="200" viewBox="0 0 200 200" xmlns="http://www.w3.org/2000/svg">
  <!-- Grapes/Inab for ع -->
  <rect width="200" height="200" fill="#f3e5f5"/>
  
  <!-- Grape vine -->
  <path d="M100 40 Q90 60 100 80 Q110 100 100 120" fill="none" stroke="#4caf50" stroke-width="3"/>
  
  <!-- Grape leaves -->
  <path d="M85 55 Q70 45 75 65 Q85 70 90 60 Q95 50 85 55" fill="#66bb6a" stroke="#4caf50" stroke-width="2"/>
  <path d="M115 75 Q130 65 125 85 Q115 90 110 80 Q105 70 115 75" fill="#66bb6a" stroke="#4caf50" stroke-width="2"/>
  
  <!-- Grape bunch -->
  <circle cx="100" cy="90" r="8" fill="#9c27b0"/>
  <circle cx="90" cy="100" r="8" fill="#9c27b0"/>
  <circle cx="110" cy="100" r="8" fill="#9c27b0"/>
  <circle cx="85" cy="115" r="8" fill="#9c27b0"/>
  <circle cx="100" cy="115" r="8" fill="#9c27b0"/>
  <circle cx="115" cy="115" r="8" fill="#9c27b0"/>
  <circle cx="80" cy="130" r="8" fill="#9c27b0"/>
  <circle cx="95" cy="130" r="8" fill="#9c27b0"/>
  <circle cx="110" cy="130" r="8" fill="#9c27b0"/>
  <circle cx="125" cy="130" r="8" fill="#9c27b0"/>
  <circle cx="85" cy="145" r="8" fill="#9c27b0"/>
  <circle cx="100" cy="145" r="8" fill="#9c27b0"/>
  <circle cx="115" cy="145" r="8" fill="#9c27b0"/>
  <circle cx="90" cy="160" r="8" fill="#9c27b0"/>
  <circle cx="105" cy="160" r="8" fill="#9c27b0"/>
  <circle cx="95" cy="175" r="8" fill="#9c27b0"/>
  
  <!-- Grape highlights -->
  <circle cx="102" cy="88" r="2" fill="#e1bee7" opacity="0.8"/>
  <circle cx="92" cy="98" r="2" fill="#e1bee7" opacity="0.8"/>
  <circle cx="112" cy="98" r="2" fill="#e1bee7" opacity="0.8"/>
  <circle cx="87" cy="113" r="2" fill="#e1bee7" opacity="0.8"/>
  <circle cx="102" cy="113" r="2" fill="#e1bee7" opacity="0.8"/>
  <circle cx="117" cy="113" r="2" fill="#e1bee7" opacity="0.8"/>
  <circle cx="82" cy="128" r="2" fill="#e1bee7" opacity="0.8"/>
  <circle cx="97" cy="128" r="2" fill="#e1bee7" opacity="0.8"/>
  <circle cx="112" cy="128" r="2" fill="#e1bee7" opacity="0.8"/>
  <circle cx="127" cy="128" r="2" fill="#e1bee7" opacity="0.8"/>
  
  <!-- Tendril -->
  <path d="M120 45 Q130 40 125 50 Q120 55 125 60" fill="none" stroke="#4caf50" stroke-width="2"/>
  
  <!-- Wine glass -->
  <path d="M40 150 L50 130 L60 150" fill="none" stroke="#424242" stroke-width="2"/>
  <line x1="50" y1="150" x2="50" y2="165" stroke="#424242" stroke-width="2"/>
  <ellipse cx="50" cy="167" rx="8" ry="2" fill="#424242"/>
  <path d="M42 140 L58 140" fill="#8b0000" opacity="0.7"/>
  
  <!-- Arabic letter ع -->
  <text x="25" y="45" font-family="'Noto Sans Arabic', 'Arabic Typesetting', Arial, sans-serif" font-size="32" fill="#9c27b0" font-weight="bold">ع</text>
</svg>