<svg width="200" height="200" viewBox="0 0 200 200" xmlns="http://www.w3.org/2000/svg">
  <!-- Cardamom/Elach for এ -->
  <rect width="200" height="200" fill="#f1f8e9"/>
  
  <!-- Cardamom pods -->
  <ellipse cx="85" cy="110" rx="8" ry="20" fill="#8bc34a" stroke="#4caf50" stroke-width="2"/>
  <ellipse cx="100" cy="120" rx="8" ry="20" fill="#8bc34a" stroke="#4caf50" stroke-width="2"/>
  <ellipse cx="115" cy="115" rx="8" ry="20" fill="#8bc34a" stroke="#4caf50" stroke-width="2"/>
  <ellipse cx="130" cy="125" rx="8" ry="20" fill="#8bc34a" stroke="#4caf50" stroke-width="2"/>
  
  <!-- Cardamom lines/ridges -->
  <line x1="85" y1="95" x2="85" y2="125" stroke="#4caf50" stroke-width="1"/>
  <line x1="100" y1="105" x2="100" y2="135" stroke="#4caf50" stroke-width="1"/>
  <line x1="115" y1="100" x2="115" y2="130" stroke="#4caf50" stroke-width="1"/>
  <line x1="130" y1="110" x2="130" y2="140" stroke="#4caf50" stroke-width="1"/>
  
  <!-- Small cardamom seeds -->
  <circle cx="82" cy="110" r="1.5" fill="#2e7d32"/>
  <circle cx="88" cy="115" r="1.5" fill="#2e7d32"/>
  <circle cx="97" cy="120" r="1.5" fill="#2e7d32"/>
  <circle cx="103" cy="125" r="1.5" fill="#2e7d32"/>
  <circle cx="112" cy="115" r="1.5" fill="#2e7d32"/>
  <circle cx="118" cy="120" r="1.5" fill="#2e7d32"/>
  <circle cx="127" cy="125" r="1.5" fill="#2e7d32"/>
  <circle cx="133" cy="130" r="1.5" fill="#2e7d32"/>
  
  <!-- Spice aroma lines -->
  <path d="M70 90 Q75 85 80 90" fill="none" stroke="#81c784" stroke-width="1" opacity="0.7"/>
  <path d="M145 100 Q150 95 155 100" fill="none" stroke="#81c784" stroke-width="1" opacity="0.7"/>
  <path d="M75 95 Q80 90 85 95" fill="none" stroke="#81c784" stroke-width="1" opacity="0.7"/>
  
  <!-- Bengali letter এ -->
  <text x="25" y="45" font-family="Arial, sans-serif" font-size="32" fill="#4caf50" font-weight="bold">এ</text>
</svg>