<svg width="200" height="200" viewBox="0 0 200 200" xmlns="http://www.w3.org/2000/svg">
  <!-- Banana/Kola for ক -->
  <rect width="200" height="200" fill="#fff8e1"/>
  
  <!-- Banana bunch -->
  <path d="M100 60 Q90 80 95 110 Q100 140 105 165" fill="#ffeb3b" stroke="#f57c00" stroke-width="2"/>
  <path d="M105 65 Q95 85 100 115 Q105 145 110 170" fill="#ffeb3b" stroke="#f57c00" stroke-width="2"/>
  <path d="M110 70 Q100 90 105 120 Q110 150 115 175" fill="#ffeb3b" stroke="#f57c00" stroke-width="2"/>
  <path d="M95 65 Q85 85 90 115 Q95 145 100 170" fill="#ffeb3b" stroke="#f57c00" stroke-width="2"/>
  
  <!-- Banana tips -->
  <ellipse cx="105" cy="165" rx="3" ry="8" fill="#8d6e63"/>
  <ellipse cx="110" cy="170" rx="3" ry="8" fill="#8d6e63"/>
  <ellipse cx="115" cy="175" rx="3" ry="8" fill="#8d6e63"/>
  <ellipse cx="100" cy="170" rx="3" ry="8" fill="#8d6e63"/>
  
  <!-- Banana stem -->
  <ellipse cx="102" cy="55" rx="8" ry="12" fill="#4caf50" stroke="#2e7d32" stroke-width="2"/>
  
  <!-- Banana texture lines -->
  <line x1="98" y1="80" x2="102" y2="150" stroke="#f57c00" stroke-width="1" opacity="0.7"/>
  <line x1="103" y1="85" x2="107" y2="155" stroke="#f57c00" stroke-width="1" opacity="0.7"/>
  <line x1="108" y1="90" x2="112" y2="160" stroke="#f57c00" stroke-width="1" opacity="0.7"/>
  <line x1="93" y1="85" x2="97" y2="155" stroke="#f57c00" stroke-width="1" opacity="0.7"/>
  
  <!-- Bengali letter ক -->
  <text x="25" y="45" font-family="Arial, sans-serif" font-size="32" fill="#f57c00" font-weight="bold">ক</text>
</svg>