<svg width="200" height="200" viewBox="0 0 200 200" xmlns="http://www.w3.org/2000/svg">
  <!-- Egg/Dim for ড -->
  <rect width="200" height="200" fill="#fff8e1"/>
  
  <!-- Large egg -->
  <ellipse cx="100" cy="120" rx="30" ry="40" fill="#fff" stroke="#e0e0e0" stroke-width="2"/>
  
  <!-- Egg highlight -->
  <ellipse cx="90" cy="105" rx="10" ry="15" fill="#f5f5f5" opacity="0.8"/>
  
  <!-- Smaller eggs -->
  <ellipse cx="60" cy="140" rx="15" ry="20" fill="#fff" stroke="#e0e0e0" stroke-width="2"/>
  <ellipse cx="140" cy="135" rx="18" ry="25" fill="#fff" stroke="#e0e0e0" stroke-width="2"/>
  <ellipse cx="75" cy="170" rx="12" ry="16" fill="#fff" stroke="#e0e0e0" stroke-width="2"/>
  
  <!-- Small egg highlights -->
  <ellipse cx="55" cy="135" rx="4" ry="6" fill="#f5f5f5" opacity="0.8"/>
  <ellipse cx="135" cy="125" rx="5" ry="8" fill="#f5f5f5" opacity="0.8"/>
  <ellipse cx="72" cy="165" rx="3" ry="5" fill="#f5f5f5" opacity="0.8"/>
  
  <!-- Nest -->
  <ellipse cx="100" cy="175" rx="50" ry="15" fill="#8d6e63" stroke="#5d4037" stroke-width="2"/>
  
  <!-- Nest texture -->
  <path d="M60 170 Q70 165 80 170 Q90 175 100 170 Q110 165 120 170 Q130 175 140 170" 
        fill="none" stroke="#5d4037" stroke-width="1"/>
  <path d="M55 175 Q75 180 95 175 Q115 170 135 175 Q145 180 145 175" 
        fill="none" stroke="#5d4037" stroke-width="1"/>
  
  <!-- Cracked egg pieces -->
  <path d="M45 100 L52 95 L48 105 L50 110 L45 108 Z" fill="#fff" stroke="#e0e0e0" stroke-width="1"/>
  <path d="M155 110 L160 105 L165 115 L158 118 L155 115 Z" fill="#fff" stroke="#e0e0e0" stroke-width="1"/>
  
  <!-- Bengali letter ড -->
  <text x="25" y="45" font-family="Arial, sans-serif" font-size="32" fill="#8d6e63" font-weight="bold">ড</text>
</svg>