<svg width="200" height="200" viewBox="0 0 200 200" xmlns="http://www.w3.org/2000/svg">
  <!-- Fish/Mach for ম -->
  <rect width="200" height="200" fill="#e0f2f1"/>
  
  <!-- Fish body -->
  <ellipse cx="100" cy="120" rx="35" ry="20" fill="#26a69a" stroke="#00695c" stroke-width="2"/>
  
  <!-- Fish head -->
  <ellipse cx="70" cy="120" rx="15" ry="18" fill="#26a69a" stroke="#00695c" stroke-width="2"/>
  
  <!-- Fish tail -->
  <path d="M135 120 L155 105 L160 120 L155 135 Z" fill="#26a69a" stroke="#00695c" stroke-width="2"/>
  
  <!-- Fish fins -->
  <ellipse cx="100" cy="100" rx="8" ry="12" fill="#4db6ac" stroke="#00695c" stroke-width="1"/>
  <ellipse cx="100" cy="140" rx="8" ry="12" fill="#4db6ac" stroke="#00695c" stroke-width="1"/>
  <ellipse cx="80" cy="105" rx="6" ry="10" fill="#4db6ac" stroke="#00695c" stroke-width="1"/>
  
  <!-- Fish eye -->
  <circle cx="65" cy="115" r="4" fill="#fff"/>
  <circle cx="66" cy="114" r="2" fill="#000"/>
  
  <!-- Fish scales -->
  <ellipse cx="85" cy="115" rx="3" ry="2" fill="#4db6ac" opacity="0.7"/>
  <ellipse cx="95" cy="110" rx="3" ry="2" fill="#4db6ac" opacity="0.7"/>
  <ellipse cx="105" cy="115" rx="3" ry="2" fill="#4db6ac" opacity="0.7"/>
  <ellipse cx="115" cy="110" rx="3" ry="2" fill="#4db6ac" opacity="0.7"/>
  <ellipse cx="125" cy="115" rx="3" ry="2" fill="#4db6ac" opacity="0.7"/>
  <ellipse cx="90" cy="125" rx="3" ry="2" fill="#4db6ac" opacity="0.7"/>
  <ellipse cx="100" cy="130" rx="3" ry="2" fill="#4db6ac" opacity="0.7"/>
  <ellipse cx="110" cy="125" rx="3" ry="2" fill="#4db6ac" opacity="0.7"/>
  <ellipse cx="120" cy="130" rx="3" ry="2" fill="#4db6ac" opacity="0.7"/>
  
  <!-- Water bubbles -->
  <circle cx="50" cy="80" r="3" fill="#4fc3f7" opacity="0.6"/>
  <circle cx="150" cy="90" r="4" fill="#4fc3f7" opacity="0.6"/>
  <circle cx="60" cy="160" r="2.5" fill="#4fc3f7" opacity="0.6"/>
  <circle cx="140" cy="170" r="3.5" fill="#4fc3f7" opacity="0.6"/>
  
  <!-- Bengali letter ম -->
  <text x="25" y="45" font-family="Arial, sans-serif" font-size="32" fill="#00695c" font-weight="bold">ম</text>
</svg>